<svg width="35" height="35" viewBox="0 0 35 35" fill="none" xmlns="http://www.w3.org/2000/svg">
<path d="M33.3215 11.202L32.0542 10.2104H32.0848V2.91934H29.1681V7.95163L20.1965 0.931797C18.6098 -0.310599 16.3917 -0.310599 14.805 0.931797L1.67854 11.202C0.6125 12.0361 0 13.2931 0 14.6477V35H13.125V21.8761C13.125 21.0726 13.7783 20.4179 14.5833 20.4179H20.4167C21.2217 20.4179 21.875 21.0726 21.875 21.8761V35H35V14.6477C35 13.2931 34.3875 12.0361 33.3215 11.202ZM32.0833 32.0836H24.7917V21.8761C24.7917 19.4642 22.8288 17.5015 20.4167 17.5015H14.5833C12.1713 17.5015 10.2083 19.4642 10.2083 21.8761V32.0836H2.91667V14.6477C2.91667 14.1957 3.12083 13.7772 3.47667 13.4987L16.6017 3.22848C17.131 2.81435 17.869 2.81435 18.3983 3.22848L31.5233 13.4987C31.8792 13.7772 32.0833 14.1957 32.0833 14.6477V32.0836Z" fill="#662E84"/>
</svg>
