<svg width="29" height="35" viewBox="0 0 29 35" fill="none" xmlns="http://www.w3.org/2000/svg">
<path d="M21.75 35H7.25C3.25235 35 0 31.729 0 27.7083V7.29167C0 3.27104 3.25235 0 7.25 0H21.75C25.7477 0 29 3.27104 29 7.29167V27.7083C29 31.729 25.7477 35 21.75 35ZM7.25 2.91667C4.8517 2.91667 2.9 4.87958 2.9 7.29167V27.7083C2.9 30.1204 4.8517 32.0833 7.25 32.0833H21.75C24.1483 32.0833 26.1 30.1204 26.1 27.7083V7.29167C26.1 4.87958 24.1483 2.91667 21.75 2.91667H7.25ZM23.2 8.75C23.2 7.945 22.5504 7.29167 21.75 7.29167H15.95C15.1496 7.29167 14.5 7.945 14.5 8.75C14.5 9.555 15.1496 10.2083 15.95 10.2083H21.75C22.5504 10.2083 23.2 9.555 23.2 8.75ZM23.2 17.5C23.2 16.695 22.5504 16.0417 21.75 16.0417H15.95C15.1496 16.0417 14.5 16.695 14.5 17.5C14.5 18.305 15.1496 18.9583 15.95 18.9583H21.75C22.5504 18.9583 23.2 18.305 23.2 17.5ZM23.2 26.25C23.2 25.445 22.5504 24.7917 21.75 24.7917H15.95C15.1496 24.7917 14.5 25.445 14.5 26.25C14.5 27.055 15.1496 27.7083 15.95 27.7083H21.75C22.5504 27.7083 23.2 27.055 23.2 26.25ZM11.6 10.2083V7.29167C11.6 6.48667 10.9504 5.83333 10.15 5.83333H7.25C6.4496 5.83333 5.8 6.48667 5.8 7.29167V10.2083C5.8 11.0133 6.4496 11.6667 7.25 11.6667H10.15C10.9504 11.6667 11.6 11.0133 11.6 10.2083ZM11.6 18.9583V16.0417C11.6 15.2367 10.9504 14.5833 10.15 14.5833H7.25C6.4496 14.5833 5.8 15.2367 5.8 16.0417V18.9583C5.8 19.7633 6.4496 20.4167 7.25 20.4167H10.15C10.9504 20.4167 11.6 19.7633 11.6 18.9583ZM11.6 27.7083V24.7917C11.6 23.9867 10.9504 23.3333 10.15 23.3333H7.25C6.4496 23.3333 5.8 23.9867 5.8 24.7917V27.7083C5.8 28.5133 6.4496 29.1667 7.25 29.1667H10.15C10.9504 29.1667 11.6 28.5133 11.6 27.7083Z" fill="#662E84"/>
</svg>
