<svg width="32" height="35" viewBox="0 0 32 35" fill="none" xmlns="http://www.w3.org/2000/svg">
<path d="M31.5393 1.36932C30.9831 0.511854 30.0201 0 28.9656 0H24.3805C22.043 0 19.9478 1.24536 18.9147 3.25195L16.0789 8.75401C16.0469 8.75401 16.0149 8.74964 15.9829 8.74964C15.9616 8.74964 15.9418 8.75255 15.9205 8.75255L13.0847 3.25195C12.05 1.24536 9.95635 0 7.61886 0H3.03378C1.97932 0 1.01629 0.511854 0.458582 1.36932C-0.0976004 2.22678 -0.150933 3.27965 0.315346 4.18524L5.24023 13.7413C3.38578 15.9798 2.26884 18.803 2.26884 21.8755C2.26884 29.1115 8.4219 35 15.9829 35C23.544 35 29.697 29.1115 29.697 21.8755C29.697 18.8146 28.5877 16.0031 26.7454 13.7676L31.684 4.1867C32.1518 3.28111 32.097 2.22824 31.5408 1.37078L31.5393 1.36932ZM7.61734 2.91655C8.78608 2.91655 9.83292 3.53923 10.3495 4.54252L12.719 9.14045C10.7929 9.59252 9.02531 10.4296 7.51372 11.5699L3.03226 2.91655H7.61734ZM15.9814 32.082C10.0996 32.082 5.31489 27.503 5.31489 21.8741C5.31489 16.5368 9.61959 12.1503 15.0808 11.7099C15.0824 11.7099 15.0839 11.7099 15.0869 11.7099C15.3826 11.6866 15.6812 11.6662 15.9829 11.6662C21.8647 11.6662 26.6494 16.2452 26.6494 21.8741C26.6494 27.503 21.8647 32.082 15.9829 32.082H15.9814ZM24.4689 11.586C22.9604 10.4427 21.1958 9.60418 19.2728 9.14774L21.6468 4.54252C22.1634 3.53923 23.2103 2.91655 24.379 2.91655L28.9504 2.89467L24.4689 11.586ZM22.3158 21.0137C22.3158 21.5401 21.9333 21.9835 21.4945 22.2168L19.224 23.4242L20.2312 26.0535C20.4263 26.5624 20.2495 27.1341 19.797 27.4607C19.3337 27.7947 18.6953 27.7903 18.2381 27.4505L15.9799 25.7793L13.7216 27.4505C13.263 27.7888 12.6245 27.7932 12.1628 27.4607C11.7102 27.1341 11.5335 26.5639 11.7285 26.0535L12.7357 23.4242L10.4653 22.2168C10.0264 21.9835 9.64397 21.5401 9.64397 21.0137C9.64397 20.5675 10.0493 20.0746 10.7045 20.0746H13.9654L14.8294 16.9028C14.9666 16.3997 15.4374 16.0497 15.9799 16.041C16.5208 16.0512 16.9932 16.3997 17.1303 16.9028L17.9943 20.0746H21.2552C21.9105 20.0746 22.3158 20.566 22.3158 21.0137Z" fill="#662E84"/>
</svg>
