<svg version="1.1" xmlns="http://www.w3.org/2000/svg" xmlns:xlink="http://www.w3.org/1999/xlink" width="512.000000pt" height="512.000000pt" viewBox="0,0,256,256"><g fill="#2c3e50" fill-rule="nonzero" stroke="none" stroke-width="1" stroke-linecap="butt" stroke-linejoin="miter" stroke-miterlimit="10" stroke-dasharray="" stroke-dashoffset="0" font-family="none" font-weight="none" font-size="none" text-anchor="none" style="mix-blend-mode: normal"><g transform="translate(0,0)"><g><g transform="translate(-0.28235,0.01582) scale(0.5,0.5)"><g transform="translate(0,512) scale(0.1,-0.1)"><path d="M1644,5106c-240,-55 -425,-231 -490,-467c-14,-49 -18,-96 -16,-199c2,-183 -21,-261 -104,-344c-84,-83 -160,-106 -349,-103c-158,2 -211,-9 -325,-69c-295,-154 -424,-497 -303,-804c43,-108 95,-177 217,-289c91,-84 133,-184 123,-298c-8,-99 -51,-177 -144,-260c-130,-117 -198,-230 -229,-384c-42,-209 21,-415 176,-570c81,-82 148,-124 250,-160c55,-19 93,-24 245,-28c168,-6 184,-8 237,-33c73,-34 142,-103 176,-176c26,-54 27,-65 28,-222c0,-176 8,-224 54,-325c130,-289 492,-445 790,-341c109,38 173,81 289,197c126,126 176,151 301,151c119,0 178,-27 275,-126c111,-113 160,-151 246,-190c100,-45 167,-60 274,-60c297,1 544,194 621,487c12,43 17,109 18,217c1,145 3,159 27,211c37,79 90,133 167,171c66,33 69,33 247,39c152,4 190,9 245,28c192,67 345,223 405,413c20,65 25,99 25,191c0,208 -54,332 -216,492c-55,55 -108,112 -117,126c-31,51 -50,139 -45,210c8,103 40,158 167,285c162,163 211,274 211,479c0,192 -52,319 -184,450c-143,143 -266,190 -486,187c-158,-1 -219,12 -297,64c-60,41 -118,120 -138,188c-10,32 -14,93 -14,189c1,162 -10,218 -68,336c-53,109 -169,224 -283,280c-277,135 -575,72 -788,-167c-47,-53 -79,-79 -130,-104c-61,-30 -74,-33 -162,-33c-132,0 -185,25 -301,145c-104,107 -186,162 -293,196c-100,32 -242,40 -332,20zM1855,4825c67,-11 116,-44 225,-149c161,-155 300,-216 489,-216c111,0 196,21 301,72c70,35 103,60 184,141c108,107 163,141 252,156c161,25 312,-56 382,-207c25,-54 27,-67 28,-212c1,-85 7,-176 13,-202c41,-176 162,-338 312,-418c120,-64 158,-72 359,-79c178,-7 187,-8 243,-36c67,-33 133,-101 168,-172c20,-41 24,-63 24,-148c0,-91 -3,-105 -30,-159c-21,-41 -53,-80 -108,-130c-122,-110 -186,-211 -222,-346c-21,-79 -24,-224 -6,-300c32,-131 124,-280 221,-355c55,-43 112,-113 130,-161c66,-171 -13,-377 -177,-460c-57,-28 -61,-29 -228,-30c-146,-1 -180,-4 -240,-24c-216,-68 -383,-241 -441,-455c-11,-42 -17,-108 -18,-220c-1,-151 -3,-163 -28,-217c-34,-73 -103,-142 -176,-176c-49,-23 -70,-27 -147,-27c-133,0 -164,15 -305,149c-172,165 -289,216 -494,216c-206,0 -353,-69 -517,-245c-35,-37 -81,-73 -116,-90c-52,-27 -68,-30 -153,-30c-82,0 -103,4 -151,26c-76,36 -129,86 -170,161l-34,63l-6,185c-7,194 -13,228 -60,324c-80,161 -214,278 -383,332c-73,24 -97,27 -246,28l-165,1l-67,33c-74,36 -132,95 -170,170c-20,40 -23,62 -23,152c0,95 3,110 27,157c16,30 72,95 136,160c89,88 116,122 145,183c50,102 67,177 67,290c0,108 -17,185 -60,278c-38,82 -73,127 -186,237c-75,74 -95,100 -113,148c-28,78 -29,186 0,262c27,73 104,156 177,192c54,25 68,27 242,34c148,5 196,10 240,26c177,64 307,179 380,335c47,102 59,168 62,343c3,151 5,163 31,216c49,101 155,180 266,199c46,8 60,7 136,-5z"></path><path d="M2449,3550c-274,-32 -539,-194 -700,-427c-301,-435 -203,-1033 221,-1355c81,-62 240,-140 345,-170c70,-20 102,-23 255,-22c200,0 268,14 414,82c115,54 198,112 287,201c123,124 211,273 261,446c20,71 23,101 22,260c0,167 -2,186 -28,269c-29,96 -88,221 -139,295c-55,80 -179,201 -264,258c-202,134 -435,191 -674,163zM2724,3255c38,-8 112,-35 165,-61c164,-80 297,-235 358,-419c24,-71 27,-95 27,-215c0,-121 -3,-143 -28,-215c-108,-316 -398,-513 -723,-492c-175,12 -334,85 -458,211c-130,132 -194,280 -202,466c-6,137 12,227 73,350c39,79 62,110 133,181c141,140 299,207 496,208c50,0 121,-6 159,-14z"></path></g></g></g></g></g></svg>