<svg xmlns="http://www.w3.org/2000/svg" version="1.0" width="512.000000pt" height="512.000000pt" viewBox="0 0 512.000000 512.000000" preserveAspectRatio="xMidYMid meet">

<g transform="translate(0.000000,512.000000) scale(0.100000,-0.100000)" fill="#8e44ad" stroke="none">
<path d="M730 5106 c-162 -45 -285 -174 -319 -334 -16 -75 -16 -4349 0 -4424 36 -166 171 -301 337 -337 68 -14 2544 -16 2571 -1 10 5 24 22 30 39 10 24 10 34 -3 59 -8 16 -23 32 -31 36 -9 3 -480 6 -1046 6 l-1029 0 0 2410 0 2410 288 0 c276 0 289 1 310 20 14 14 22 33 22 55 0 22 -8 41 -22 55 -21 20 -32 20 -542 19 -385 -1 -533 -4 -566 -13z m360 -2547 l0 -2411 -162 4 c-140 3 -169 6 -209 24 -58 27 -116 84 -143 143 l-21 46 0 2195 0 2195 22 47 c28 62 93 123 156 147 43 17 77 20 205 20 l152 1 0 -2411z" fill="#8e44ad"/>
<path d="M2047 5108 c-38 -30 -38 -95 1 -124 13 -11 115 -13 485 -14 l467 0 0 -266 c0 -298 1 -304 70 -343 62 -34 94 -28 220 44 63 36 118 65 122 65 5 0 59 -29 121 -65 119 -69 150 -76 211 -51 18 7 44 29 57 47 24 34 24 38 27 302 l3 267 303 0 c297 0 304 0 346 -23 30 -16 51 -37 67 -67 l23 -43 -2 -2287 -3 -2286 -25 -37 c-14 -21 -43 -46 -66 -57 -38 -19 -62 -20 -476 -20 -425 0 -436 0 -462 -21 -36 -28 -36 -80 0 -108 26 -21 37 -21 469 -21 495 0 501 1 591 69 35 26 59 56 84 105 l35 69 0 2321 0 2321 -36 65 c-23 42 -52 78 -83 101 -96 73 -13 69 -1340 69 -938 0 -1196 -3 -1209 -12z m1633 -373 c0 -129 -3 -235 -6 -235 -3 0 -51 27 -107 59 -56 33 -118 62 -138 66 -36 7 -81 -13 -231 -99 l-48 -28 0 236 0 236 265 0 265 0 0 -235z" fill="#8e44ad"/>
<path d="M1660 3791 c-79 -17 -146 -76 -169 -150 -8 -27 -11 -222 -11 -657 0 -601 1 -620 21 -664 24 -53 52 -85 94 -108 26 -15 88 -18 510 -22 l480 -5 90 -157 c50 -86 102 -169 115 -183 52 -56 148 -56 201 1 13 14 65 96 115 182 l90 157 480 5 c429 4 482 7 511 22 41 23 91 84 103 128 14 49 13 1253 -1 1303 -13 47 -60 102 -113 130 l-41 22 -1220 1 c-671 1 -1236 -1 -1255 -5z m2471 -170 c18 -22 19 -47 19 -631 0 -564 -1 -609 -17 -629 -18 -20 -24 -21 -498 -23 -476 -3 -480 -3 -516 -25 -27 -17 -57 -60 -130 -187 -52 -91 -98 -161 -102 -156 -5 4 -51 79 -101 166 -71 121 -101 164 -127 179 -32 19 -57 20 -517 25 -464 5 -484 6 -498 24 -12 17 -14 118 -14 626 0 655 -1 643 53 653 12 2 564 4 1225 3 l1204 -1 19 -24z" fill="#8e44ad"/>
<path d="M2925 3370 c-42 -16 -44 -29 -47 -244 l-3 -207 -139 203 c-77 112 -148 213 -159 226 -26 28 -79 30 -107 2 -19 -19 -20 -33 -20 -360 0 -327 1 -341 20 -360 27 -27 81 -26 106 1 17 19 20 43 24 219 l5 197 140 -204 c167 -244 194 -265 256 -203 l30 29 -3 330 c-3 315 -4 331 -23 350 -25 24 -54 32 -80 21z" fill="#8e44ad"/>
<path d="M3545 3370 c-144 -21 -257 -118 -305 -260 -61 -179 26 -383 199 -467 44 -22 73 -28 147 -31 83 -4 98 -2 151 22 113 52 183 152 202 291 11 79 2 111 -39 132 -30 15 -197 17 -236 3 -55 -21 -69 -68 -33 -114 18 -23 27 -26 86 -26 l66 0 -7 -32 c-8 -40 -49 -94 -86 -113 -38 -19 -131 -19 -178 1 -148 61 -190 257 -79 372 76 79 176 96 284 48 48 -22 64 -25 85 -17 45 17 63 76 34 113 -20 27 -105 65 -170 77 -33 6 -62 10 -65 10 -3 -1 -28 -5 -56 -9z" fill="#8e44ad"/>
<path d="M1880 3350 c-19 -19 -20 -33 -20 -360 0 -327 1 -341 20 -360 18 -18 33 -20 180 -20 147 0 162 2 180 20 30 30 27 83 -6 109 -23 18 -41 21 -125 21 l-99 0 0 80 0 80 98 0 c113 0 132 10 132 72 0 58 -26 72 -136 76 l-94 4 0 74 0 74 99 0 c84 0 102 3 125 21 33 26 36 79 6 109 -18 18 -33 20 -180 20 -147 0 -162 -2 -180 -20z" fill="#8e44ad"/>
<path d="M1872 1390 c-14 -14 -22 -33 -22 -55 0 -22 8 -41 22 -55 22 -20 29 -20 1014 -20 546 0 1000 3 1009 6 45 18 48 111 5 134 -12 6 -383 10 -1012 10 -987 0 -994 0 -1016 -20z" fill="#8e44ad"/>
<path d="M2212 987 c-31 -33 -29 -80 4 -106 26 -21 34 -21 674 -21 640 0 648 0 674 21 33 26 36 79 6 109 -20 20 -33 20 -678 20 l-659 0 -21 -23z" fill="#8e44ad"/>
</g>
</svg>