<svg xmlns="http://www.w3.org/2000/svg" width="38" height="35" viewBox="0 0 38 35" fill="none">
<path d="M36.2932 1.11165C35.76 0.662922 35.1347 0.337917 34.4619 0.159844C33.7892 -0.0182289 33.0856 -0.0449776 32.4013 0.0815075L22.6163 1.86678C21.2161 2.12026 19.942 2.84056 19 3.91117C18.0587 2.83879 16.7845 2.11677 15.3837 1.86201L5.59867 0.0767382C4.9143 -0.0480371 4.21099 -0.020383 3.53844 0.157747C2.86589 0.335876 2.24051 0.660134 1.70649 1.10761C1.17247 1.55508 0.74284 2.11485 0.447967 2.74735C0.153093 3.37986 0.000169013 4.06967 0 4.76804L0 31.5296L19 35L38 31.5296V4.76804C38.0001 4.07018 37.8472 3.38086 37.5522 2.74896C37.2572 2.11706 36.8274 1.55808 36.2932 1.11165ZM17.4167 31.4756L3.16667 28.8779V4.76804C3.16686 4.53529 3.21796 4.30542 3.31635 4.09467C3.41474 3.88392 3.55802 3.69743 3.73607 3.54838C3.91412 3.39933 4.12259 3.29135 4.34677 3.23208C4.57094 3.1728 4.80534 3.16367 5.03342 3.20533L14.8168 4.9906C15.5465 5.12389 16.2064 5.51007 16.6815 6.08181C17.1566 6.65355 17.4168 7.37459 17.4167 8.1192V31.4756ZM34.8333 28.8748L20.5833 31.4756V8.1192C20.5832 7.37459 20.8434 6.65355 21.3185 6.08181C21.7936 5.51007 22.4535 5.12389 23.1832 4.9906L32.9666 3.20533C33.1947 3.16367 33.4291 3.1728 33.6532 3.23208C33.8774 3.29135 34.0859 3.39933 34.2639 3.54838C34.442 3.69743 34.5853 3.88392 34.6837 4.09467C34.782 4.30542 34.8331 4.53529 34.8333 4.76804V28.8748Z" fill="#c92021"/>
</svg>